<svg width="42" height="55" viewBox="0 0 42 55" fill="none" xmlns="http://www.w3.org/2000/svg">
<mask id="path-1-inside-1_101_407" fill="white">
<path d="M38.1098 12.5815L14.486 1.76336C14.486 1.76336 11.0466 -1.29447 7.90396 2.44706C6.60697 3.99119 6.32526 5.71717 6.32526 5.71717L0.4105 42.4277C-0.0617305 45.8264 4.07558 46.9251 4.07558 46.9251L35.6491 54.8292L35.5252 53.2742C36.1858 52.0869 37.6597 50.0988 40.2297 49.8553C40.2871 49.8497 40.329 49.8114 40.3787 49.7858L41.3376 50.1003L38.1098 12.5815ZM15.9859 18.3701L17.0967 10.0276L34.7904 17.7417L35.1263 25.3049L15.9859 18.3701ZM36.5243 50.6009C36.2003 50.8919 35.9064 51.1936 35.6582 51.4993L15.0859 46.1264L35.1083 52.2605C35.0267 52.3867 34.9432 52.5124 34.8743 52.6308L8.37023 45.9008L34.4525 53.4348L34.4266 53.4889L4.94868 45.8857C4.9332 45.8837 3.5447 45.5879 2.58276 44.7799C1.6323 43.9816 1.45008 42.996 2.02311 41.7657C3.49479 38.604 8.66641 40.4552 8.74408 40.4837L38.4811 49.3673C38.0834 49.523 37.7296 49.7241 37.3944 49.9396L18.0745 44.8277L36.5243 50.6009Z"/>
</mask>
<path d="M38.1098 12.5815L14.486 1.76336C14.486 1.76336 11.0466 -1.29447 7.90396 2.44706C6.60697 3.99119 6.32526 5.71717 6.32526 5.71717L0.4105 42.4277C-0.0617305 45.8264 4.07558 46.9251 4.07558 46.9251L35.6491 54.8292L35.5252 53.2742C36.1858 52.0869 37.6597 50.0988 40.2297 49.8553C40.2871 49.8497 40.329 49.8114 40.3787 49.7858L41.3376 50.1003L38.1098 12.5815ZM15.9859 18.3701L17.0967 10.0276L34.7904 17.7417L35.1263 25.3049L15.9859 18.3701ZM36.5243 50.6009C36.2003 50.8919 35.9064 51.1936 35.6582 51.4993L15.0859 46.1264L35.1083 52.2605C35.0267 52.3867 34.9432 52.5124 34.8743 52.6308L8.37023 45.9008L34.4525 53.4348L34.4266 53.4889L4.94868 45.8857C4.9332 45.8837 3.5447 45.5879 2.58276 44.7799C1.6323 43.9816 1.45008 42.996 2.02311 41.7657C3.49479 38.604 8.66641 40.4552 8.74408 40.4837L38.4811 49.3673C38.0834 49.523 37.7296 49.7241 37.3944 49.9396L18.0745 44.8277L36.5243 50.6009Z" fill="#9DA2C8"/>
<path d="M38.1098 12.5815L39.1061 12.4957L39.0561 11.915L38.5261 11.6723L38.1098 12.5815ZM14.486 1.76336L13.8216 2.5107L13.9335 2.61021L14.0696 2.67256L14.486 1.76336ZM6.32526 5.71717L5.33832 5.55608L5.33799 5.5581L6.32526 5.71717ZM0.4105 42.4277L-0.576769 42.2686L-0.578493 42.2793L-0.579986 42.2901L0.4105 42.4277ZM4.07558 46.9251L3.81892 47.8916L3.82582 47.8935L3.83274 47.8952L4.07558 46.9251ZM35.6491 54.8292L35.4063 55.7992L36.7566 56.1373L36.646 54.7497L35.6491 54.8292ZM35.5252 53.2742L34.6513 52.7881L34.5043 53.0523L34.5283 53.3537L35.5252 53.2742ZM40.2297 49.8553L40.324 50.8509L40.3278 50.8505L40.2297 49.8553ZM40.3787 49.7858L40.6903 48.8356L40.2925 48.7051L39.9204 48.897L40.3787 49.7858ZM41.3376 50.1003L41.026 51.0505L42.4636 51.522L42.3339 50.0146L41.3376 50.1003ZM17.0967 10.0276L17.4963 9.11096L16.2805 8.58088L16.1054 9.89564L17.0967 10.0276ZM34.7904 17.7417L35.7894 17.6974L35.7618 17.0743L35.1901 16.8251L34.7904 17.7417ZM35.1263 25.3049L34.7856 26.2451L36.1916 26.7545L36.1253 25.2605L35.1263 25.3049ZM35.6582 51.4993L35.4055 52.4669L36.0286 52.6296L36.4346 52.1296L35.6582 51.4993ZM15.0859 46.1264L15.3386 45.1588L14.793 47.0825L15.0859 46.1264ZM35.1083 52.2605L35.9483 52.8031L36.666 51.6918L35.4012 51.3043L35.1083 52.2605ZM34.8743 52.6308L34.6282 53.6001L35.3595 53.7858L35.7388 53.1336L34.8743 52.6308ZM8.37023 45.9008L8.61635 44.9315L8.09272 46.8615L8.37023 45.9008ZM34.4525 53.4348L35.3546 53.8662L35.8638 52.8015L34.73 52.474L34.4525 53.4348ZM34.4266 53.4889L34.1768 54.4572L34.9737 54.6628L35.3287 53.9204L34.4266 53.4889ZM4.94868 45.8857L5.19844 44.9173L5.13777 44.9017L5.07562 44.8937L4.94868 45.8857ZM2.02311 41.7657L2.9296 42.1879L2.9297 42.1877L2.02311 41.7657ZM8.74408 40.4837L8.3995 41.4224L8.42837 41.433L8.45784 41.4418L8.74408 40.4837ZM38.4811 49.3673L38.8457 50.2985L41.5489 49.2401L38.7673 48.4091L38.4811 49.3673ZM37.3944 49.9396L37.1386 50.9063L37.5644 51.019L37.935 50.7808L37.3944 49.9396ZM18.0745 44.8277L18.3303 43.8609L17.7758 45.782L18.0745 44.8277ZM38.5261 11.6723L14.9024 0.854157L14.0696 2.67256L37.6934 13.4907L38.5261 11.6723ZM14.486 1.76336C15.1504 1.01602 15.15 1.01566 15.1496 1.01529C15.1495 1.01515 15.149 1.01477 15.1487 1.0145C15.1481 1.01394 15.1474 1.01334 15.1467 1.01269C15.1452 1.01139 15.1435 1.00991 15.1416 1.00824C15.1378 1.00491 15.1331 1.00085 15.1276 0.99609C15.1165 0.986582 15.102 0.974294 15.0842 0.959543C15.0486 0.930061 14.9995 0.89061 14.938 0.843748C14.8152 0.750243 14.641 0.625938 14.4229 0.491933C13.9907 0.226463 13.3631 -0.0910891 12.604 -0.270932C11.8387 -0.452238 10.9274 -0.495814 9.95924 -0.192491C8.98769 0.111899 8.02853 0.743941 7.13823 1.80389L8.66968 3.09022C9.35072 2.27941 9.99998 1.89061 10.5572 1.71603C11.1178 1.54039 11.6556 1.55974 12.143 1.6752C12.6365 1.79212 13.0652 2.00518 13.3761 2.19614C13.5295 2.29034 13.6486 2.3757 13.7262 2.4348C13.7648 2.46425 13.7927 2.48684 13.809 2.50032C13.8172 2.50705 13.8224 2.51148 13.8245 2.51331C13.8256 2.51423 13.8259 2.51449 13.8254 2.51407C13.8251 2.51386 13.8247 2.51348 13.8241 2.51292C13.8237 2.51264 13.8234 2.51231 13.823 2.51194C13.8228 2.51176 13.8224 2.51145 13.8223 2.51136C13.8219 2.51104 13.8216 2.5107 14.486 1.76336ZM7.13823 1.80389C6.39681 2.68659 5.95146 3.61301 5.6911 4.3122C5.56022 4.66367 5.47398 4.9634 5.41963 5.17988C5.39242 5.2883 5.37307 5.37637 5.36005 5.44023C5.35354 5.47218 5.3486 5.49812 5.34504 5.51757C5.34326 5.5273 5.34183 5.53541 5.34072 5.54185C5.34016 5.54507 5.33968 5.54787 5.33929 5.55024C5.33909 5.55143 5.33891 5.55251 5.33874 5.55348C5.33866 5.55397 5.33859 5.55443 5.33852 5.55486C5.33848 5.55508 5.33843 5.55538 5.33841 5.55549C5.33837 5.55579 5.33832 5.55608 6.32526 5.71717C7.3122 5.87826 7.31215 5.87853 7.31211 5.8788C7.31209 5.87889 7.31205 5.87915 7.31202 5.87931C7.31197 5.87964 7.31192 5.87995 7.31187 5.88022C7.31178 5.88078 7.31171 5.88123 7.31165 5.88158C7.31153 5.88228 7.31148 5.88258 7.31149 5.88249C7.31153 5.8823 7.31183 5.88053 7.31243 5.87724C7.31364 5.87066 7.31602 5.85801 7.31974 5.83975C7.32719 5.80318 7.33999 5.74435 7.35945 5.66683C7.39846 5.51144 7.4637 5.28317 7.56537 5.01013C7.77011 4.4603 8.11412 3.75166 8.66968 3.09022L7.13823 1.80389ZM5.33799 5.5581L-0.576769 42.2686L1.39777 42.5867L7.31253 5.87624L5.33799 5.5581ZM-0.579986 42.2901C-0.886863 44.4987 0.343062 45.9458 1.48313 46.7635C2.05231 47.1718 2.62903 47.45 3.05693 47.6255C3.27283 47.7141 3.45587 47.7786 3.58801 47.8218C3.6542 47.8434 3.70798 47.8598 3.74712 47.8713C3.7667 47.8771 3.78265 47.8816 3.7947 47.885C3.80073 47.8867 3.80578 47.8881 3.80983 47.8892C3.81185 47.8897 3.81363 47.8902 3.81514 47.8906C3.8159 47.8908 3.81659 47.891 3.81722 47.8912C3.81754 47.8913 3.81797 47.8914 3.81812 47.8914C3.81853 47.8915 3.81892 47.8916 4.07558 46.9251C4.33224 45.9586 4.3326 45.9587 4.33295 45.9588C4.33304 45.9588 4.33337 45.9589 4.33356 45.959C4.33394 45.9591 4.33425 45.9592 4.33451 45.9592C4.33503 45.9594 4.3353 45.9594 4.33534 45.9595C4.33541 45.9595 4.33454 45.9592 4.33275 45.9587C4.32917 45.9577 4.32195 45.9557 4.31134 45.9526C4.29011 45.9463 4.25546 45.9358 4.20944 45.9208C4.11717 45.8906 3.98067 45.8427 3.81608 45.7752C3.48299 45.6385 3.05489 45.4296 2.64878 45.1383C1.83825 44.557 1.23563 43.7554 1.40098 42.5653L-0.579986 42.2901ZM3.83274 47.8952L35.4063 55.7992L35.892 53.8591L4.31842 45.9551L3.83274 47.8952ZM36.646 54.7497L36.522 53.1948L34.5283 53.3537L34.6523 54.9086L36.646 54.7497ZM36.399 53.7604C37.0155 52.6525 38.2635 51.0461 40.324 50.8509L40.1353 48.8598C37.056 49.1516 35.3561 51.5213 34.6513 52.7881L36.399 53.7604ZM40.3278 50.8505C40.5566 50.8279 40.723 50.7416 40.7986 50.6989C40.8181 50.6879 40.8345 50.678 40.8454 50.6714C40.8509 50.6681 40.8558 50.665 40.8592 50.6629C40.8635 50.6602 40.8647 50.6595 40.867 50.6581C40.8762 50.6524 40.8607 50.6624 40.837 50.6746L39.9204 48.897C39.8718 48.922 39.8324 48.9464 39.818 48.9552C39.7944 48.9698 39.8059 48.9626 39.8155 48.9572C39.8434 48.9414 39.9601 48.877 40.1316 48.8601L40.3278 50.8505ZM40.067 50.736L41.026 51.0505L41.6492 49.1501L40.6903 48.8356L40.067 50.736ZM42.3339 50.0146L39.1061 12.4957L37.1135 12.6672L40.3413 50.186L42.3339 50.0146ZM16.9771 18.5021L18.0879 10.1596L16.1054 9.89564L14.9946 18.2381L16.9771 18.5021ZM16.697 10.9443L34.3908 18.6584L35.1901 16.8251L17.4963 9.11096L16.697 10.9443ZM33.7914 17.7861L34.1273 25.3493L36.1253 25.2605L35.7894 17.6974L33.7914 17.7861ZM35.4669 24.3647L16.3265 17.4299L15.6452 19.3103L34.7856 26.2451L35.4669 24.3647ZM35.8561 49.8569C35.5013 50.1755 35.1694 50.5149 34.8819 50.869L36.4346 52.1296C36.6435 51.8723 36.8992 51.6082 37.1925 51.3448L35.8561 49.8569ZM35.9109 50.5318L15.3386 45.1588L14.8332 47.0939L35.4055 52.4669L35.9109 50.5318ZM14.793 47.0825L34.8153 53.2166L35.4012 51.3043L15.3789 45.1702L14.793 47.0825ZM34.2682 51.7179C34.1979 51.8268 34.0942 51.9832 34.0099 52.1281L35.7388 53.1336C35.7922 53.0416 35.8556 52.9465 35.9483 52.8031L34.2682 51.7179ZM35.1204 51.6616L8.61635 44.9315L8.12412 46.87L34.6282 53.6001L35.1204 51.6616ZM8.09272 46.8615L34.175 54.3955L34.73 52.474L8.64774 44.94L8.09272 46.8615ZM33.5504 53.0033L33.5245 53.0575L35.3287 53.9204L35.3546 53.8662L33.5504 53.0033ZM34.6764 52.5206L5.19844 44.9173L4.69892 46.854L34.1768 54.4572L34.6764 52.5206ZM5.07562 44.8937C5.14043 44.902 5.18218 44.9142 5.11399 44.898C5.08343 44.8907 5.03545 44.8787 4.97352 44.8616C4.84918 44.8274 4.67271 44.7737 4.47036 44.6982C4.05302 44.5424 3.58379 44.3148 3.22592 44.0142L1.93959 45.5457C2.54367 46.053 3.24966 46.3773 3.77093 46.5719C4.03788 46.6715 4.27156 46.7427 4.44197 46.7897C4.52742 46.8133 4.59798 46.831 4.65007 46.8434C4.66453 46.8469 4.75306 46.8688 4.82174 46.8776L5.07562 44.8937ZM3.22592 44.0142C2.88635 43.729 2.75629 43.4759 2.71485 43.2524C2.6712 43.0171 2.7011 42.6785 2.9296 42.1879L1.11661 41.3435C0.77209 42.0832 0.606584 42.8526 0.748394 43.6172C0.892424 44.3937 1.32871 45.0325 1.93959 45.5457L3.22592 44.0142ZM2.9297 42.1877C3.3933 41.1917 4.46915 40.8608 5.85855 40.9272C6.5166 40.9587 7.14885 41.0797 7.62829 41.1982C8.10604 41.3162 8.4086 41.4258 8.3995 41.4224L9.08866 39.5449C9.0156 39.5181 7.59131 39.0079 5.95415 38.9295C4.3704 38.8537 2.1246 39.178 1.11651 41.3437L2.9297 42.1877ZM8.45784 41.4418L38.1949 50.3255L38.7673 48.4091L9.03032 39.5255L8.45784 41.4418ZM38.1165 48.4361C37.6344 48.6249 37.219 48.8636 36.8537 49.0984L37.935 50.7808C38.2402 50.5847 38.5325 50.4211 38.8457 50.2985L38.1165 48.4361ZM37.6501 48.9729L18.3303 43.8609L17.8187 45.7944L37.1386 50.9063L37.6501 48.9729ZM17.7758 45.782L36.2257 51.5552L36.8229 49.6465L18.3731 43.8733L17.7758 45.782Z" fill="#6668AA" mask="url(#path-1-inside-1_101_407)"/>
</svg>
