<svg width="100" height="80" viewBox="0 0 100 80" fill="none" xmlns="http://www.w3.org/2000/svg">
<g clip-path="url(#clip0_101_249)">
<path d="M89.6758 8.00307C89.6758 3.91156 86.3409 0.563965 82.2648 0.563965H18.0359C13.9598 0.563965 10.6248 3.91156 10.6248 8.00307V60.0768H89.6758V8.00307ZM79.7945 50.158H20.5062V10.4828H79.7945V50.158Z" fill="url(#paint0_linear_101_249)" fill-opacity="0.9"/>
<path d="M79.7945 50.9815H80.6179V50.158V10.4828V9.65932H79.7945H20.5062H19.6827V10.4828V50.158V50.9815H20.5062H79.7945ZM82.2648 1.38741C85.8832 1.38741 88.8524 4.3634 88.8524 8.00307V59.2534H11.4483V8.00307C11.4483 4.3634 14.4175 1.38741 18.0359 1.38741H82.2648Z" stroke="url(#paint1_linear_101_249)" stroke-opacity="0.4" stroke-width="1.6469"/>
<path d="M40.1191 41.1149C41.0841 42.0835 42.6481 42.0835 43.6131 41.1149L45.3593 39.3621C46.3243 38.3934 46.3243 36.8235 45.3593 35.8548L39.8443 30.3205L45.3578 24.7845C46.3228 23.8159 46.3228 22.2459 45.3578 21.2773L43.6116 19.5244C42.6466 18.5558 41.0826 18.5558 40.1176 19.5244L31.1101 28.5661C30.1451 29.5347 30.1451 31.1047 31.1101 32.0733L40.1191 41.1149ZM54.9427 39.3636L56.689 41.1165C57.6539 42.0851 59.218 42.0851 60.183 41.1165L69.1905 32.0748C70.1554 31.1062 70.1554 29.5362 69.1905 28.5676L60.183 19.526C59.218 18.5574 57.6539 18.5574 56.689 19.526L54.9427 21.2788C53.9778 22.2475 53.9778 23.8174 54.9427 24.7861L60.4562 30.3205L54.9427 35.8564C53.9778 36.825 53.9778 38.395 54.9427 39.3636Z" fill="url(#paint2_linear_101_249)" fill-opacity="0.9"/>
<path d="M40.4108 40.8243L40.4108 40.8243L31.4018 31.7827C31.4018 31.7827 31.4018 31.7827 31.4017 31.7827C30.5968 30.9747 30.5969 29.6646 31.4018 28.8566L40.4093 19.815C41.2133 19.0079 42.5158 19.0079 43.3199 19.815L45.0661 21.5679C45.871 22.3758 45.871 23.686 45.0661 24.4939L45.0661 24.494L39.5526 30.0299L39.2631 30.3205L39.5527 30.6111L45.0677 36.1454C45.8726 36.9534 45.8726 38.2635 45.0677 39.0715L43.3214 40.8243C42.5174 41.6314 41.2149 41.6314 40.4108 40.8243ZM60.748 30.611L61.0374 30.3204L60.7479 30.0299L55.2344 24.4955C54.4295 23.6875 54.4295 22.3774 55.2344 21.5694L56.9806 19.8166C57.7847 19.0095 59.0872 19.0095 59.8913 19.8166L68.8988 28.8582C69.7037 29.6662 69.7037 30.9763 68.8988 31.7843L59.8913 40.8259C59.0872 41.633 57.7847 41.633 56.9806 40.8259L55.2344 39.073C54.4295 38.2651 54.4295 36.9549 55.2344 36.147L55.2345 36.1469L60.748 30.611Z" stroke="url(#paint3_linear_101_249)" stroke-opacity="0.4" stroke-width="0.823448"/>
<path d="M97.0869 65.0361H59.6519C59.5377 68.1063 57.3808 69.9955 54.597 69.9955H45.2097C42.324 69.9955 40.1115 67.288 40.1501 65.0361H3.21381C1.85512 65.0361 0.743469 66.152 0.743469 67.5158V69.9955C0.743469 75.4509 5.19009 79.9143 10.6248 79.9143H89.6759C95.1106 79.9143 99.5573 75.4509 99.5573 69.9955V67.5158C99.5573 66.152 98.4456 65.0361 97.0869 65.0361Z" fill="url(#paint4_linear_101_249)" fill-opacity="0.9"/>
<path d="M3.21381 65.8596H39.3924C39.582 66.9703 40.1666 68.0632 40.9858 68.927C42.0205 70.0178 43.5009 70.819 45.2097 70.819H54.597C56.1777 70.819 57.6227 70.2803 58.6926 69.2643C59.5969 68.4055 60.1974 67.2397 60.4022 65.8596H97.0869C97.9879 65.8596 98.7338 66.6038 98.7338 67.5158V69.9955C98.7338 74.999 94.6529 79.0909 89.6759 79.0909H10.6248C5.6478 79.0909 1.56692 74.999 1.56692 69.9955V67.5158C1.56692 66.6038 2.31283 65.8596 3.21381 65.8596Z" stroke="url(#paint5_linear_101_249)" stroke-opacity="0.4" stroke-width="1.6469"/>
</g>
<defs>
<linearGradient id="paint0_linear_101_249" x1="70.4148" y1="-32.4594" x2="70.4148" y2="103.192" gradientUnits="userSpaceOnUse">
<stop stop-color="#F53B3B"/>
<stop offset="1" stop-color="#FB6544"/>
</linearGradient>
<linearGradient id="paint1_linear_101_249" x1="70.621" y1="-5.1686" x2="70.621" y2="79.9145" gradientUnits="userSpaceOnUse">
<stop stop-color="#E74544"/>
<stop offset="1" stop-color="white" stop-opacity="0.14"/>
</linearGradient>
<linearGradient id="paint2_linear_101_249" x1="36.8997" y1="-1.97303" x2="29.0356" y2="70.5012" gradientUnits="userSpaceOnUse">
<stop stop-color="#1256BC"/>
<stop offset="1" stop-color="#44F0FB"/>
</linearGradient>
<linearGradient id="paint3_linear_101_249" x1="27.5015" y1="-21.9592" x2="27.5015" y2="50.498" gradientUnits="userSpaceOnUse">
<stop stop-color="#E74544"/>
<stop offset="1" stop-color="white" stop-opacity="0.14"/>
</linearGradient>
<linearGradient id="paint4_linear_101_249" x1="0.412688" y1="54.8552" x2="0.412689" y2="105.46" gradientUnits="userSpaceOnUse">
<stop stop-color="#F5AB3B"/>
<stop offset="1" stop-color="#FB6544"/>
</linearGradient>
<linearGradient id="paint5_linear_101_249" x1="0.743055" y1="65.0361" x2="0.743055" y2="96.7764" gradientUnits="userSpaceOnUse">
<stop stop-color="#E74544"/>
<stop offset="1" stop-color="white" stop-opacity="0.14"/>
</linearGradient>
<clipPath id="clip0_101_249">
<rect width="98.8138" height="79.3505" fill="white" transform="translate(0.743408 0.563965)"/>
</clipPath>
</defs>
</svg>
