<svg width="59" height="59" viewBox="0 0 59 59" fill="none" xmlns="http://www.w3.org/2000/svg">
<path d="M40.5632 37.25H17.437C17.0837 37.25 16.7536 37.0705 16.5547 36.7703C13.5034 32.1689 13.2694 23.3176 13.2517 22.0036C13.2506 21.9521 13.25 21.9001 13.25 21.8483C13.25 21.2425 13.727 20.7511 14.3161 20.75H14.3183C14.9062 20.75 15.3841 21.2391 15.3863 21.844C15.3863 21.8514 15.3865 21.9163 15.389 22.0312C15.4831 25.1562 17.9846 27.6683 21.0458 27.6683C24.1665 27.6683 26.7053 25.0575 26.7053 21.8483C26.7053 21.2417 27.1837 20.75 27.7733 20.75H30.2267C30.8166 20.75 31.2947 21.2417 31.2947 21.8483C31.2947 25.0575 33.8338 27.6683 36.9545 27.6683C40.0185 27.6683 42.5216 25.1516 42.6115 22.0227C42.6135 21.9129 42.614 21.8514 42.614 21.8443C42.6162 21.2391 43.0938 20.75 43.682 20.75H43.6839C44.273 20.7511 44.75 21.2425 44.75 21.8483C44.75 21.9003 44.7494 21.9521 44.7486 22.0039C44.7306 23.3176 44.4966 32.1692 41.4456 36.7706C41.2466 37.0705 40.9163 37.25 40.5632 37.25Z" fill="#F79C6E"/>
<path d="M43.6837 20.75C43.6831 20.75 43.6826 20.75 43.6817 20.75C43.0938 20.75 42.6159 21.2391 42.6137 21.844C42.6137 21.8514 42.6134 21.9129 42.6112 22.0227C42.5213 25.1514 40.0181 27.6684 36.9541 27.6684C33.8334 27.6684 31.2945 25.0575 31.2945 21.8483C31.2945 21.2417 30.8162 20.75 30.2265 20.75H29V37.25H40.5629C40.9163 37.25 41.2463 37.0705 41.4453 36.7706C44.4966 32.1691 44.7306 23.3173 44.7483 22.0036C44.7494 21.9521 44.75 21.9001 44.75 21.8483C44.7497 21.2425 44.2727 20.7511 43.6837 20.75Z" fill="#F6844B"/>
<path d="M29 17C26.9323 17 25.25 18.6823 25.25 20.7502C25.25 22.818 26.9323 24.5 29 24.5C31.0677 24.5 32.75 22.818 32.75 20.7502C32.75 18.6823 31.0677 17 29 17Z" fill="#F6844B"/>
<path d="M29 17V24.5C31.0679 24.4997 32.75 22.8177 32.75 20.75C32.75 18.6823 31.0676 17.0003 29 17Z" fill="#F47434"/>
<path d="M14.3751 19.25C12.5141 19.25 11 20.9323 11 23C11 25.0677 12.5141 26.75 14.3751 26.75C16.2362 26.75 17.75 25.0677 17.75 23C17.75 20.9323 16.2362 19.25 14.3751 19.25Z" fill="#F6844B"/>
<path d="M43.6249 19.25C41.7638 19.25 40.25 20.9323 40.25 23.0002C40.25 25.0677 41.7638 26.75 43.6249 26.75C45.4859 26.75 47 25.0677 47 23.0002C47 20.9323 45.4859 19.25 43.6249 19.25Z" fill="#F47434"/>
<path d="M40.672 41H17.328C16.7326 41 16.25 40.4941 16.25 39.87V36.5H41.75V39.87C41.75 40.4941 41.2674 41 40.672 41Z" fill="#F6844B"/>
<path d="M29 41H40.6719C41.2674 41 41.75 40.4941 41.75 39.87V36.5H29V41Z" fill="#F47434"/>
<rect x="1.5" y="1.5" width="55" height="55" rx="7.5" stroke="url(#paint0_linear_9129_7)"/>
<defs>
<linearGradient id="paint0_linear_9129_7" x1="57" y1="57" x2="-10" y2="5.5" gradientUnits="userSpaceOnUse">
<stop stop-color="#F6844B"/>
<stop offset="1" stop-color="#2C2E59"/>
</linearGradient>
</defs>
</svg>
