<svg width="24" height="24" viewBox="0 0 24 24" fill="none" xmlns="http://www.w3.org/2000/svg">
<g clip-path="url(#clip0_101_208)">
<path d="M19.1962 17.2794H4.38475C4.15846 17.2794 3.94706 17.1644 3.81965 16.9721C1.86544 14.0251 1.71553 8.35622 1.70419 7.51469C1.70348 7.48171 1.70312 7.44836 1.70312 7.41519C1.70312 7.02723 2.00862 6.71252 2.38589 6.71179H2.38731C2.76387 6.71179 3.0699 7.02504 3.07132 7.41246C3.07132 7.4172 3.07149 7.45874 3.07309 7.53236C3.13334 9.53377 4.73544 11.1427 6.69602 11.1427C8.6947 11.1427 10.3207 9.47054 10.3207 7.41519C10.3207 7.02668 10.6271 6.71179 11.0047 6.71179H12.576C12.9538 6.71179 13.26 7.02668 13.26 7.41519C13.26 9.47054 14.8862 11.1427 16.8849 11.1427C18.8472 11.1427 20.4504 9.53086 20.508 7.5269C20.5092 7.45656 20.5096 7.4172 20.5096 7.41264C20.511 7.02504 20.8169 6.71179 21.1936 6.71179H21.1948C21.5721 6.71252 21.8776 7.02723 21.8776 7.41519C21.8776 7.44854 21.8773 7.48171 21.8767 7.51487C21.8652 8.35622 21.7153 14.0253 19.7613 16.9723C19.6339 17.1644 19.4223 17.2794 19.1962 17.2794Z" fill="#F79C6E"/>
<path d="M21.1947 6.71179C21.1943 6.71179 21.194 6.71179 21.1935 6.71179C20.8169 6.71179 20.5109 7.02505 20.5094 7.41247C20.5094 7.41721 20.5093 7.45657 20.5078 7.52691C20.4503 9.53073 18.8471 11.1427 16.8847 11.1427C14.886 11.1427 13.26 9.47059 13.26 7.4152C13.26 7.02669 12.9536 6.71179 12.576 6.71179H11.7904V17.2794H19.196C19.4223 17.2794 19.6337 17.1644 19.7611 16.9723C21.7153 14.0253 21.8652 8.35606 21.8766 7.5147C21.8773 7.48172 21.8776 7.44837 21.8776 7.4152C21.8775 7.02723 21.572 6.71252 21.1947 6.71179Z" fill="#F6844B"/>
<path d="M11.7903 4.31018C10.466 4.31018 9.38855 5.38765 9.38855 6.712C9.38855 8.03635 10.466 9.11363 11.7903 9.11363C13.1146 9.11363 14.192 8.03635 14.192 6.712C14.192 5.38765 13.1146 4.31018 11.7903 4.31018Z" fill="#F6844B"/>
<path d="M11.7904 4.31018V9.11363C13.1148 9.11344 14.1921 8.0362 14.1921 6.7119C14.1921 5.38761 13.1146 4.31037 11.7904 4.31018Z" fill="#F47434"/>
<path d="M2.42372 5.75122C1.23181 5.75122 0.262085 6.82865 0.262085 8.15295C0.262085 9.47724 1.23181 10.5547 2.42372 10.5547C3.61564 10.5547 4.58519 9.47724 4.58519 8.15295C4.58519 6.82865 3.61564 5.75122 2.42372 5.75122Z" fill="#F6844B"/>
<path d="M21.1569 5.75122C19.965 5.75122 18.9955 6.82869 18.9955 8.15304C18.9955 9.4772 19.965 10.5547 21.1569 10.5547C22.3489 10.5547 23.3186 9.4772 23.3186 8.15304C23.3186 6.82869 22.3489 5.75122 21.1569 5.75122Z" fill="#F47434"/>
<path d="M19.2658 19.6811H4.31496C3.9336 19.6811 3.62451 19.3571 3.62451 18.9574V16.7991H19.9562V18.9574C19.9562 19.3571 19.6471 19.6811 19.2658 19.6811Z" fill="#F6844B"/>
<path d="M11.7904 19.6811H19.2658C19.6472 19.6811 19.9563 19.3571 19.9563 18.9574V16.7991H11.7904V19.6811Z" fill="#F47434"/>
</g>
<defs>
<clipPath id="clip0_101_208">
<rect width="23.0565" height="23.0565" fill="white" transform="translate(0.261963 0.467407)"/>
</clipPath>
</defs>
</svg>
