<svg width="82" height="40" viewBox="0 0 82 40" fill="none" xmlns="http://www.w3.org/2000/svg">
<path d="M75.469 28.7031C75.469 29.8586 73.6878 27.5476 72.5004 27.5476C71.3129 27.5476 68.938 29.8586 68.938 28.7031C71.3129 26.3921 71.3381 21.77 72.2629 21.77C73.1877 21.77 73.6878 26.3921 75.469 28.7031Z" fill="#F5443B"/>
<path d="M13.6105 24.2716C13.6105 25.0901 13.419 25.7955 13.0358 26.3876C12.6701 26.9623 12.0605 27.4935 11.2072 27.9812C10.6324 28.3295 9.96191 28.5907 9.19561 28.7649C8.42931 28.939 7.6543 29.0261 6.87058 29.0261C6.06945 29.0261 5.07674 28.7649 3.89246 28.2424C3.03908 27.8244 2.35986 27.3281 1.8548 26.7533C1.36715 26.1786 1.12333 25.5516 1.12333 24.8724C1.12333 24.4022 1.22782 24.0626 1.43681 23.8536C1.64581 23.6272 1.98542 23.514 2.45565 23.514C2.69947 23.514 2.952 23.6185 3.21324 23.8275C3.47448 24.019 3.63122 24.2106 3.68347 24.4022C3.92729 25.1162 4.35398 25.6648 4.96354 26.048C5.5731 26.4137 6.33069 26.5966 7.23632 26.5966C8.28127 26.5966 9.15207 26.405 9.84871 26.0219C10.5628 25.6387 10.9198 25.125 10.9198 24.4806C10.9198 23.8536 10.5366 23.2963 9.77034 22.8086C9.00404 22.321 8.22032 21.9814 7.41919 21.7898C6.26973 21.4763 5.2509 21.1019 4.36269 20.6665C3.43965 20.2137 2.75172 19.6564 2.2989 18.9945C1.84609 18.3327 1.61968 17.6361 1.61968 16.9046C1.61968 16.2254 1.8548 15.5375 2.32503 14.8408C2.79526 14.1268 3.35257 13.613 3.99696 13.2995C4.34527 13.1254 4.93742 12.9425 5.77338 12.7509C6.62676 12.5419 7.24503 12.4375 7.62818 12.4375C8.13324 12.4375 8.69055 12.4984 9.30011 12.6203C9.90966 12.7422 10.406 12.9164 10.7892 13.1428C11.5555 13.5782 12.1215 13.9701 12.4872 14.3184C12.853 14.6667 13.0358 15.1021 13.0358 15.6246C13.0358 15.9381 12.9139 16.2167 12.6701 16.4605C12.4437 16.7044 12.0431 16.8263 11.4684 16.8263C11.3291 16.8263 11.1897 16.7653 11.0504 16.6434C10.9111 16.5215 10.7369 16.3386 10.5279 16.0948C10.2493 15.7291 9.97933 15.4852 9.71809 15.3633C9.45685 15.2762 9.0737 15.1805 8.56864 15.076C8.08099 14.9715 7.64559 14.9192 7.26244 14.9192C6.84446 14.9192 6.40906 15.0063 5.95625 15.1805C5.50343 15.3546 5.12028 15.6071 4.8068 15.9381C4.51073 16.2515 4.36269 16.6173 4.36269 17.0353C4.36269 17.3836 4.51943 17.6884 4.83292 17.9496C5.16382 18.1934 5.55568 18.3937 6.0085 18.5504C6.53097 18.7594 7.09699 18.9423 7.70655 19.099C8.50768 19.3429 9.16078 19.5693 9.66584 19.7783C10.1883 19.9698 10.6934 20.2137 11.181 20.5097C12.0344 21.0148 12.6527 21.5373 13.0358 22.0772C13.419 22.5996 13.6105 23.3311 13.6105 24.2716ZM17.3861 12.2285C17.9956 12.2807 18.5268 12.4462 18.9796 12.7248C19.4324 12.9861 19.6588 13.3866 19.6588 13.9265C19.6588 14.3271 19.4673 14.6493 19.0841 14.8931C18.7184 15.1195 18.2743 15.2327 17.7518 15.2327C17.2467 15.2327 16.8984 15.1021 16.7068 14.8408C16.5153 14.5796 16.4195 14.3097 16.4195 14.031C16.4195 13.5085 16.4717 13.0731 16.5762 12.7248C16.6981 12.3765 16.9681 12.211 17.3861 12.2285ZM19.476 23.8013V24.5589C19.476 25.2382 19.4934 25.8825 19.5282 26.4921C19.5805 27.0842 19.6414 27.6851 19.7111 28.2947C19.6937 28.4688 19.5631 28.6517 19.3192 28.8433C19.0754 29.0174 18.8577 29.1045 18.6661 29.1045C18.3352 29.1045 17.9956 29.0435 17.6473 28.9216C17.3164 28.7823 17.1161 28.6168 17.0465 28.4253C16.942 27.868 16.8897 27.3716 16.8897 26.9362C16.8897 25.5081 16.8462 23.9058 16.7591 22.1294C16.6894 20.562 16.6546 19.4648 16.6546 18.8378C16.6546 18.5243 16.8113 18.2544 17.1248 18.028C17.4383 17.8016 17.7692 17.6884 18.1175 17.6884C18.6226 17.6884 18.9709 17.8016 19.1625 18.028C19.3715 18.2544 19.476 18.6114 19.476 19.099V23.8013ZM34.6503 26.9885C34.7374 27.0233 34.8767 27.0668 35.0683 27.1191C35.2598 27.1713 35.3992 27.2236 35.4862 27.2758C35.5733 27.3281 35.6169 27.4064 35.6169 27.5109C35.6343 27.9289 35.4775 28.2772 35.1466 28.5559C34.8332 28.8171 34.4587 28.9478 34.0233 28.9478C33.3441 28.9478 32.8129 28.7649 32.4298 28.3992C32.0466 28.0334 31.7679 27.4761 31.5938 26.7272C31.5241 26.4312 31.4893 26.0219 31.4893 25.4994C31.4893 25.2033 31.5067 24.7244 31.5415 24.0626C31.5764 23.3659 31.5938 22.8086 31.5938 22.3907C31.5938 21.7811 31.4196 21.2499 31.0713 20.7971C30.7404 20.3269 30.2702 20.0918 29.6606 20.0918C29.2949 20.0918 28.9117 20.205 28.5112 20.4314C28.1106 20.6404 27.8319 20.9016 27.6752 21.2151C27.414 21.7201 27.2311 22.2687 27.1266 22.8609C26.935 23.9058 26.8392 24.9943 26.8392 26.1264C26.8392 26.6663 26.8479 27.0842 26.8654 27.3803C26.8654 27.45 26.8654 27.5893 26.8654 27.7983C26.8828 27.9899 26.8654 28.1727 26.8131 28.3469C26.7783 28.5036 26.7086 28.6517 26.6041 28.791C26.517 28.8781 26.3777 28.9478 26.1861 29C26.012 29.0697 25.8465 29.1045 25.6898 29.1045C25.446 29.1045 25.1412 29 24.7755 28.791C24.4097 28.582 24.2007 28.3469 24.1485 28.0857L24.1224 27.6416C24.1224 27.4848 24.1398 27.3019 24.1746 27.093C24.3836 25.8738 24.4881 24.8115 24.4881 23.9058C24.4881 23.5053 24.4794 23.1918 24.462 22.9654L24.4358 21.7376C24.4358 21.3196 24.3313 20.919 24.1224 20.5359C23.9134 20.1353 23.6695 19.935 23.3909 19.935C23.3038 19.935 23.1819 19.9698 23.0252 20.0395C22.8684 20.0918 22.7378 20.1179 22.6333 20.1179C22.4591 20.1179 22.2676 20.0308 22.0586 19.8566C21.867 19.6825 21.7712 19.4996 21.7712 19.308C21.7712 18.9423 21.8931 18.6462 22.1369 18.4198C22.3982 18.2108 22.6507 18.0454 22.8945 17.9235C23.1558 17.8016 23.4518 17.7406 23.7827 17.7406C24.0614 17.7406 24.2878 17.7667 24.462 17.819C24.6361 17.8712 24.8712 17.9844 25.1673 18.1586C25.3241 18.2457 25.5069 18.4372 25.7159 18.7333C25.9249 19.0294 26.0991 19.4474 26.2384 19.9873C26.6912 19.1513 27.2485 18.5679 27.9103 18.237C28.5895 17.8886 29.4516 17.7145 30.4966 17.7145C30.8972 17.7145 31.3238 17.8451 31.7767 18.1063C32.2469 18.3676 32.6475 18.6724 32.9784 19.0207C33.2918 19.4038 33.5531 19.8828 33.7621 20.4575C33.9711 21.0148 34.0756 21.5199 34.0756 21.9727C34.0756 22.2339 34.0581 22.6606 34.0233 23.2527C33.9711 23.723 33.9449 24.2193 33.9449 24.7418C33.9449 25.9609 34.1801 26.7098 34.6503 26.9885ZM47.4361 29.1045C46.844 29.1045 46.3911 29.0174 46.0777 28.8433C45.7642 28.6517 45.4246 28.3034 45.0588 27.7983C44.606 28.1989 43.9268 28.5211 43.0212 28.7649C42.1329 29.0087 41.3666 29.1306 40.7223 29.1306C39.6599 29.1306 38.7978 28.8433 38.136 28.2685C37.4916 27.6764 37.1694 26.8143 37.1694 25.6823C37.1694 25.1946 37.3 24.7505 37.5613 24.3499C37.8399 23.932 38.1969 23.5662 38.6323 23.2527C39.12 22.9218 39.6947 22.6606 40.3565 22.469C41.0357 22.2775 41.654 22.1817 42.2113 22.1817C43.1518 22.1817 43.9877 22.2687 44.7192 22.4429V22.4168C44.7192 21.4763 44.4841 20.8319 44.0139 20.4836C43.561 20.1179 42.8296 19.935 41.8195 19.935C41.1751 19.935 40.6178 20.2224 40.1475 20.7971C39.9734 21.0235 39.6076 21.1367 39.0503 21.1367C38.7717 21.1367 38.5627 21.0235 38.4233 20.7971C38.3014 20.5533 38.2405 20.3095 38.2405 20.0656C38.2405 19.5606 38.4495 19.1252 38.8675 18.7594C39.3029 18.3937 39.8253 18.1238 40.4349 17.9496C41.0444 17.758 41.6105 17.6622 42.1329 17.6622C42.638 17.6622 43.2389 17.7667 43.9355 17.9757C44.6321 18.1847 45.1981 18.4634 45.6335 18.8117C46.156 19.2645 46.5566 19.7957 46.8352 20.4052C47.1313 20.9974 47.2793 21.6505 47.2793 22.3645C47.2793 22.5909 47.2619 22.9305 47.2271 23.3834C47.1923 23.9058 47.1749 24.3325 47.1749 24.6634C47.1749 24.8202 47.1574 25.0205 47.1226 25.2643C47.0878 25.5778 47.0704 25.839 47.0704 26.048C47.0704 26.2744 47.14 26.4921 47.2793 26.7011C47.4187 26.9101 47.6103 27.0842 47.8541 27.2236C48.0805 27.3455 48.2285 27.4761 48.2982 27.6154C48.3678 27.7548 48.4027 27.9115 48.4027 28.0857C48.4027 28.2598 48.2895 28.4775 48.0631 28.7388C47.8541 28.9826 47.6451 29.1045 47.4361 29.1045ZM42.2113 24.1148C41.5321 24.1148 40.9312 24.2455 40.4088 24.5067C39.8863 24.7679 39.625 25.2295 39.625 25.8913C39.625 26.2222 39.7383 26.5008 39.9647 26.7272C40.2085 26.9536 40.4697 27.0668 40.7484 27.0668C41.4973 27.0668 42.1242 26.9885 42.6293 26.8317C43.1344 26.675 43.7439 26.3876 44.458 25.9696C44.545 25.691 44.5973 25.2991 44.6147 24.7941C44.6147 24.6025 44.6234 24.4544 44.6408 24.3499C43.7004 24.1932 42.8905 24.1148 42.2113 24.1148ZM50.0795 20.1962C49.9402 20.1962 49.8183 20.144 49.7138 20.0395C49.6093 19.9176 49.557 19.7783 49.557 19.6215C49.557 19.1165 49.7225 18.7333 50.0534 18.4721C50.3843 18.1934 50.7936 18.0541 51.2812 18.0541C51.9604 18.0541 52.5439 18.237 53.0315 18.6027C53.5366 18.951 53.7891 19.4561 53.7891 20.1179C53.7891 20.292 53.7543 20.9538 53.6846 22.1033C53.6149 23.4269 53.5801 24.3064 53.5801 24.7418C53.5801 25.3514 53.6933 25.8477 53.9197 26.2309C54.1635 26.5966 54.538 26.7795 55.043 26.7795C56.0183 26.7795 56.7672 26.2396 57.2897 25.1598C57.8296 24.0626 58.1866 22.7216 58.3608 21.1367C58.4304 20.4401 58.5349 19.7086 58.6743 18.9423C58.7439 18.5243 58.8397 18.2195 58.9616 18.028C59.0835 17.8364 59.3187 17.7406 59.667 17.7406C59.8934 17.7406 60.1546 17.7928 60.4507 17.8973C60.7642 18.0018 60.9645 18.1412 61.0515 18.3153C61.156 18.5766 61.2083 18.8639 61.2083 19.1774C61.2083 19.6128 61.1473 20.1788 61.0254 20.8755C60.8861 21.5721 60.7903 22.3297 60.7381 23.1482C60.7032 23.8797 60.8164 24.646 61.0777 25.4472C61.3389 26.2483 61.7133 26.7708 62.201 27.0146C62.7583 27.2932 63.037 27.5458 63.037 27.7722C63.037 28.1379 62.9063 28.4253 62.6451 28.6343C62.3839 28.8433 62.1313 28.9478 61.8875 28.9478C61.2431 28.9478 60.6597 28.7126 60.1372 28.2424C59.6321 27.7722 59.2664 27.1887 59.04 26.4921C58.6743 27.0494 58.3172 27.5109 57.9689 27.8767C57.638 28.225 57.2113 28.5211 56.6888 28.7649C56.1664 28.9913 55.522 29.1045 54.7557 29.1045C53.8501 29.1045 53.0228 28.7823 52.2739 28.1379C51.5424 27.4935 51.1767 26.3876 51.1767 24.8202C51.1767 24.3848 51.1854 23.9233 51.2028 23.4356C51.2377 22.948 51.2551 22.5996 51.2551 22.3907C51.3073 21.7637 51.3335 21.189 51.3335 20.6665C51.3335 20.5097 51.2725 20.3791 51.1506 20.2746C51.0461 20.1701 50.9242 20.1179 50.7848 20.1179C50.6804 20.1179 50.5584 20.1353 50.4191 20.1701C50.2972 20.1875 50.184 20.1962 50.0795 20.1962ZM76.9522 22.7825C77.0567 22.3994 77.1699 21.8769 77.2918 21.2151C77.466 20.4314 77.6053 19.8392 77.7098 19.4387C77.8143 19.0381 77.9536 18.6985 78.1278 18.4198C78.3194 18.1063 78.4848 17.8973 78.6241 17.7928C78.7809 17.6884 78.9463 17.6361 79.1205 17.6361C80.0261 17.6361 80.4789 17.9844 80.4789 18.6811C80.4789 19.0294 80.3396 19.6825 80.061 20.6404C79.1379 23.4269 78.4761 25.5865 78.0755 27.1191C77.9014 27.7635 77.6401 28.2598 77.2918 28.6081C76.9435 28.939 76.4733 29.1045 75.8811 29.1045C75.5851 29.1045 75.2803 28.9652 74.9668 28.6865C74.6707 28.3904 74.4269 28.0334 74.2353 27.6154L73.948 26.9101C73.4603 25.6736 73.0946 24.7244 72.8508 24.0626C72.6244 23.3834 72.4763 22.7738 72.4067 22.2339L72.1715 23.0699C71.7536 24.5676 71.3182 25.9609 70.8653 27.2497C70.6389 27.9115 70.3603 28.3904 70.0294 28.6865C69.6985 28.9652 69.2718 29.1045 68.7493 29.1045C68.4358 29.1045 68.1572 29.0348 67.9133 28.8955C67.6869 28.7562 67.4692 28.5211 67.2603 28.1902C66.9816 27.7373 66.7116 27.1278 66.4504 26.3615C66.2066 25.5952 65.8496 24.4022 65.3793 22.7825C65.1529 22.0859 64.9439 21.3544 64.7524 20.5881C64.5608 19.8044 64.465 19.2558 64.465 18.9423C64.465 18.5766 64.5608 18.2892 64.7524 18.0802C64.9439 17.8712 65.2226 17.7667 65.5883 17.7667C66.0586 17.7667 66.3895 17.8625 66.581 18.0541C66.7726 18.2282 66.9468 18.4982 67.1035 18.8639C67.1906 19.4909 67.3822 20.3791 67.6782 21.5286L68.253 23.9842C68.2878 24.1758 68.3923 24.5764 68.5664 25.1859L68.7754 25.9435C69.1586 25.125 69.4808 24.3412 69.742 23.5924C70.0033 22.8435 70.2906 21.9204 70.6041 20.8232C70.6215 20.7536 70.7957 20.1527 71.1266 19.0207C71.353 18.6549 71.5533 18.385 71.7274 18.2108C71.9016 18.0193 72.0758 17.9235 72.2499 17.9235C72.5982 17.9235 72.8943 18.0367 73.1381 18.2631C73.3994 18.4721 73.5909 18.7333 73.7129 19.0468C73.9218 19.726 74.1047 20.3443 74.2615 20.9016C74.3311 21.128 74.4879 21.6766 74.7317 22.5474C74.9929 23.4008 75.228 24.1235 75.437 24.7157C75.646 25.3078 75.8202 25.7258 75.9595 25.9696L76.9522 22.7825Z" fill="url(#paint0_linear_101_350)"/>
<path d="M20.3186 13.7875C20.3186 14.9899 19.3439 15.6017 18.1416 15.6017C16.9393 15.6017 16.3274 14.9899 16.3274 13.7875C16.3274 12.5852 16.9393 11.9734 18.1416 11.9734C19.3439 11.9734 20.3186 12.5852 20.3186 13.7875Z" fill="#F5443B"/>
<defs>
<linearGradient id="paint0_linear_101_350" x1="41" y1="0" x2="41" y2="39.1858" gradientUnits="userSpaceOnUse">
<stop stop-color="#C7CAFE"/>
<stop offset="1" stop-color="#3D408F"/>
</linearGradient>
</defs>
</svg>
