<svg width="68" height="68" viewBox="0 0 68 68" fill="none" xmlns="http://www.w3.org/2000/svg">
<g opacity="0.8">
<path d="M53.8333 34C53.8333 40.12 51.0567 45.7866 46.2683 49.5833C44.3133 51.1133 43.0383 53.125 42.6417 55.2783L42.5 55.25H25.5L25.3017 55.2783C24.905 53.04 23.7433 51.085 22.0717 49.8383C15.895 45.1633 13.005 37.5133 14.5917 29.8066C16.15 22.2983 22.2417 16.1783 29.75 14.62C35.7283 13.345 41.8483 14.8183 46.495 18.5866C51.17 22.3833 53.8333 27.9933 53.8333 34Z" fill="#E38E3F"/>
<path d="M33.9972 14.1696C32.589 14.1696 31.1667 14.3169 29.75 14.6201C22.2417 16.1784 16.15 22.2984 14.5917 29.8067C13.005 37.5134 15.895 45.1634 22.0717 49.8384C23.7433 51.0851 24.905 53.0401 25.3017 55.2784L25.5 55.2501H34V14.1696C33.9972 14.1696 33.9972 14.1696 33.9972 14.1696Z" fill="#E0842E"/>
<path d="M42.6417 55.2783C42.5567 55.76 42.5 56.2417 42.5 56.7517V63.0417C42.5 65.7617 40.2617 68 37.5417 68H30.4584C28.0784 68 25.5 66.1867 25.5 62.22V57.205C25.5 56.5533 25.4434 55.9017 25.3017 55.2783L25.5 55.25H42.5L42.6417 55.2783Z" fill="#4F4F7D"/>
<path d="M34 55.25H25.5L25.3017 55.2783C25.4434 55.9017 25.5 56.5533 25.5 57.205V62.22C25.5 66.1867 28.0784 68 30.4584 68H34V55.25Z" fill="#39395B"/>
<path d="M44.625 35.4167C43.452 35.4167 42.5 34.4647 42.5 33.2917C42.5 28.9935 39.0065 25.5 34.7083 25.5C33.5353 25.5 32.5833 24.548 32.5833 23.375C32.5833 22.202 33.5353 21.25 34.7083 21.25C41.3468 21.25 46.75 26.6532 46.75 33.2917C46.75 34.4647 45.798 35.4167 44.625 35.4167Z" fill="#FFD54F"/>
<path d="M33.252 23.3638C33.0338 23.3638 32.81 23.3666 32.5833 23.3751C32.5833 24.5481 33.5353 25.5001 34.7083 25.5001C39.0065 25.5001 42.5 28.9936 42.5 33.2918C42.5 34.4648 43.452 35.4168 44.625 35.4168C45.798 35.4168 46.1975 23.3638 33.252 23.3638Z" fill="#DEB945"/>
<path opacity="0.7" d="M57.3944 17.3617C56.961 17.3617 56.5277 17.197 56.1981 16.8652C55.5368 16.2039 55.5368 15.1319 56.1981 14.4706L59.322 11.347C59.9833 10.6858 61.0555 10.6858 61.7168 11.347C62.3781 12.0083 62.3781 13.0803 61.7168 13.7416L58.5929 16.8652C58.2611 17.1947 57.8278 17.3617 57.3944 17.3617Z" fill="#E38E3F"/>
<path opacity="0.7" d="M9.8822 17.3617C10.3156 17.3617 10.7489 17.197 11.0785 16.8652C11.7398 16.2039 11.7398 15.1319 11.0785 14.4706L7.95462 11.347C7.29329 10.6858 6.22116 10.6858 5.55982 11.347C4.89849 12.0083 4.89849 13.0803 5.55982 13.7416L8.68367 16.8652C9.01546 17.1947 9.44883 17.3617 9.8822 17.3617Z" fill="#E38E3F"/>
<path opacity="0.7" d="M66.2736 36.1702H61.7689C60.816 36.1702 60.0425 35.5221 60.0425 34.7234C60.0425 33.9248 60.816 33.2766 61.7689 33.2766H66.2736C67.2266 33.2766 68 33.9248 68 34.7234C68 35.5221 67.2266 36.1702 66.2736 36.1702Z" fill="#E38E3F"/>
<path opacity="0.7" d="M35.0851 2.81153V7.31623C35.0851 8.26919 34.4369 9.0426 33.6383 9.0426C32.8396 9.0426 32.1915 8.26919 32.1915 7.31623V2.81153C32.1915 1.85857 32.8396 1.08516 33.6383 1.08516C34.4369 1.08516 35.0851 1.85857 35.0851 2.81153Z" fill="#E38E3F"/>
<path opacity="0.7" d="M1.72639 36.1702H6.23108C7.18404 36.1702 7.95746 35.5221 7.95746 34.7234C7.95746 33.9248 7.18404 33.2766 6.23108 33.2766H1.72639C0.773428 33.2766 1.14441e-05 33.9248 1.14441e-05 34.7234C1.14441e-05 35.5221 0.773428 36.1702 1.72639 36.1702Z" fill="#E38E3F"/>
<path opacity="0.7" d="M60.5183 55.7022C60.0849 55.7022 59.6515 55.5374 59.322 55.2057L56.1981 52.0821C55.5368 51.4208 55.5368 50.3488 56.1981 49.6875C56.8595 49.0262 57.9316 49.0262 58.5929 49.6875L61.7168 52.8111C62.3781 53.4723 62.3781 54.5444 61.7168 55.2057C61.385 55.5374 60.9516 55.7022 60.5183 55.7022Z" fill="#E38E3F"/>
<path opacity="0.7" d="M6.75835 55.7022C7.19172 55.7022 7.62508 55.5374 7.95462 55.2057L11.0785 52.0821C11.7398 51.4208 11.7398 50.3488 11.0785 49.6875C10.4171 49.0262 9.345 49.0262 8.68367 49.6875L5.55982 52.8111C4.89849 53.4723 4.89849 54.5444 5.55982 55.2057C5.89162 55.5374 6.32499 55.7022 6.75835 55.7022Z" fill="#E38E3F"/>
</g>
</svg>
