<svg width="30" height="30" viewBox="0 0 30 30" fill="none" xmlns="http://www.w3.org/2000/svg">
<path d="M20.625 0H9.375C4.19813 0 0 4.19813 0 9.375V20.625C0 25.8019 4.19813 30 9.375 30H20.625C25.8019 30 30 25.8019 30 20.625V9.375C30 4.19813 25.8019 0 20.625 0ZM27.1875 20.625C27.1875 24.2437 24.2437 27.1875 20.625 27.1875H9.375C5.75625 27.1875 2.8125 24.2437 2.8125 20.625V9.375C2.8125 5.75625 5.75625 2.8125 9.375 2.8125H20.625C24.2437 2.8125 27.1875 5.75625 27.1875 9.375V20.625Z" fill="#ACABBF"/>
<path d="M15.0003 7.49976C10.8584 7.49976 7.50031 10.8579 7.50031 14.9998C7.50031 19.1416 10.8584 22.4998 15.0003 22.4998C19.1422 22.4998 22.5003 19.1416 22.5003 14.9998C22.5003 10.8579 19.1422 7.49976 15.0003 7.49976ZM15.0003 19.6873C12.4166 19.6873 10.3128 17.5835 10.3128 14.9998C10.3128 12.4141 12.4166 10.3123 15.0003 10.3123C17.5841 10.3123 19.6878 12.4141 19.6878 14.9998C19.6878 17.5835 17.5841 19.6873 15.0003 19.6873Z" fill="#ACABBF"/>
<path d="M23.0627 7.93721C23.6146 7.93721 24.062 7.48978 24.062 6.93784C24.062 6.38591 23.6146 5.93848 23.0627 5.93848C22.5107 5.93848 22.0633 6.38591 22.0633 6.93784C22.0633 7.48978 22.5107 7.93721 23.0627 7.93721Z" fill="#ACABBF"/>
</svg>
