<svg width="59" height="59" viewBox="0 0 59 59" fill="none" xmlns="http://www.w3.org/2000/svg">
<rect x="0.5" y="1.5" width="55" height="55" rx="7.5" stroke="url(#paint0_linear_9129_5)"/>
<g clip-path="url(#clip0_9129_5)">
<path d="M12.5166 33.3155C12.359 33.158 12.2616 32.9405 12.2618 32.7003L12.2618 28.7972C12.2618 28.3167 12.6513 27.9271 13.1318 27.9272C13.6123 27.9272 14.0018 28.3167 14.0018 28.7972L14.0018 32.7003C14.0018 33.1808 13.6123 33.5703 13.1318 33.5703C12.8914 33.5703 12.674 33.4729 12.5166 33.3155Z" fill="#3BA7F5"/>
<path d="M16.7592 33.3156C16.6018 33.1581 16.4976 32.9472 16.4844 32.7203L16.2675 29.0341C16.2408 28.5802 16.587 28.234 17.0408 28.2607C17.4946 28.2874 17.8842 28.6769 17.9109 29.1307L18.1277 32.817C18.1544 33.2708 17.8082 33.6171 17.3544 33.5904C17.1275 33.5772 16.9166 33.473 16.7592 33.3156Z" fill="#3BA7F5"/>
<path d="M18.226 28.7668C18.226 28.3022 17.8493 27.9256 17.3848 27.9257L13.1214 27.9256C12.8982 27.9256 12.6843 28.0142 12.5265 28.1719C12.3688 28.3297 12.28 28.5438 12.2802 28.7668L12.2801 31.6649L18.2262 31.6646L18.226 28.7668Z" fill="#259DF4"/>
<path d="M42.0736 29.7371C42.0674 28.9698 41.8885 28.2145 41.5531 27.5263C41.8769 26.8444 42.0431 26.0921 42.0365 25.3239C42.0132 22.5186 39.7115 20.2172 36.9067 20.1938C34.8226 20.1761 32.7246 21.2371 30.6708 23.3479C30.0244 24.0123 29.4893 24.674 29.1033 25.189L14.4414 25.0663C13.2109 25.056 12.2184 26.0485 12.2286 27.279L12.2404 28.6864C12.2422 28.9051 12.2473 29.5107 12.2473 29.5107L29.1372 29.6517C29.5337 30.176 30.0818 30.8492 30.7392 31.5243C32.8293 33.6668 34.9446 34.765 37.0286 34.7824C39.8339 34.8057 42.0972 32.5424 42.0736 29.7371ZM36.5501 27.4836C36.5551 28.153 36.8571 28.784 37.3776 29.2136C37.5244 29.3349 37.6095 29.5124 37.6112 29.6995C37.6139 30.0445 37.3359 30.3225 36.9912 30.3198C35.7921 30.3096 34.1971 28.8647 33.0398 27.4554C34.1733 26.0651 35.7437 24.6465 36.9441 24.6567C37.1103 24.6579 37.2675 24.7243 37.3868 24.8435C37.5062 24.9629 37.5725 25.1202 37.5738 25.2876C37.5756 25.4748 37.4939 25.6499 37.3493 25.7683C36.8359 26.1892 36.5447 26.8147 36.5501 27.4836Z" fill="#1B99F3"/>
<path d="M37.3566 29.337C37.5015 29.4565 37.585 29.6319 37.5859 29.8171C37.5874 30.1585 37.3107 30.4352 36.9696 30.4338C35.7821 30.4288 34.2089 29.0047 33.0688 27.6141L12.463 27.5283L12.4687 28.9195C12.4696 29.136 12.4721 29.7356 12.4721 29.7356L29.1955 29.805C29.5859 30.3225 30.1258 30.9868 30.7739 31.6525C32.8345 33.7653 34.9245 34.8439 36.988 34.8525C39.7658 34.864 42.0162 32.6136 42.0045 29.8359C42.0012 29.0763 41.8275 28.3291 41.4981 27.6489L36.5445 27.6283C36.5471 28.291 36.8434 28.9141 37.3566 29.337Z" fill="#3BA7F5"/>
</g>
<defs>
<linearGradient id="paint0_linear_9129_5" x1="56" y1="57" x2="-11" y2="5.5" gradientUnits="userSpaceOnUse">
<stop stop-color="#3BA7F5"/>
<stop offset="1" stop-color="#2C2E59"/>
</linearGradient>
<clipPath id="clip0_9129_5">
<rect width="32" height="32" fill="white" transform="translate(27.6274 6) rotate(45)"/>
</clipPath>
</defs>
</svg>
