<svg width="101" height="97" viewBox="0 0 101 97" fill="none" xmlns="http://www.w3.org/2000/svg">
<g clip-path="url(#clip0_101_244)">
<path d="M56.3146 54.919L65.5715 20.3718C65.9441 18.9814 67.4718 18.1658 68.7954 18.7296C85.4885 25.8302 94.6889 44.5412 89.2042 62.5411C83.5706 81.027 63.4083 92.0215 44.8064 86.7859C37.4932 84.7281 31.3466 80.5469 26.8315 75.099C25.8998 73.9755 26.2778 72.262 27.5423 71.5319L56.3146 54.919Z" fill="url(#paint0_linear_101_244)" fill-opacity="0.9"/>
<path d="M57.11 55.1321L57.0218 55.4615L56.7264 55.6321L27.954 72.245L27.5423 71.5319L27.954 72.245C27.0926 72.7424 26.8871 73.876 27.4653 74.5733L27.4655 74.5735C31.8779 79.8975 37.8831 83.9823 45.0295 85.9933L44.8064 86.7859L45.0295 85.9933C63.2012 91.1078 82.9137 80.3575 88.4165 62.3011C93.776 44.712 84.7868 26.4266 68.4731 19.4873L68.4727 19.4872C67.6467 19.1354 66.6205 19.6387 66.3669 20.5849L57.11 55.1321Z" stroke="url(#paint1_linear_101_244)" stroke-opacity="0.4" stroke-width="1.6469"/>
<path d="M11.7425 43.3027L46.2897 52.5596L17.1171 69.4023C16.0021 70.0461 14.5358 69.7297 13.8599 68.6357C9.64792 61.8177 7.6897 53.6235 8.70798 45.275C8.88194 43.8454 10.3521 42.9301 11.7425 43.3027Z" fill="url(#paint2_linear_101_244)" fill-opacity="0.9"/>
<path d="M14.5605 68.2029C14.9853 68.8904 15.9472 69.127 16.7054 68.6892L44.1563 52.8404L11.5294 44.0981C10.5836 43.8446 9.63408 44.4813 9.5254 45.3744L9.52537 45.3747C8.53051 53.5312 10.4433 61.5384 14.5605 68.2029ZM14.5605 68.2029L13.8599 68.6357L14.5605 68.2029Z" stroke="url(#paint3_linear_101_244)" stroke-opacity="0.4" stroke-width="1.6469"/>
<path d="M16.9183 34.2512C22.7782 17.1805 40.4003 7.00638 58.114 10.4669C59.4663 10.731 60.2845 12.1502 59.9279 13.4809L51.1988 46.0582L18.62 37.3288C17.2893 36.9722 16.4708 35.5545 16.9183 34.2512Z" fill="url(#paint4_linear_101_244)" fill-opacity="0.9"/>
<path d="M17.6972 34.5186L17.6971 34.5187C17.4159 35.3377 17.929 36.2911 18.8332 36.5334L50.6166 45.0497L59.1325 13.2678C59.375 12.3629 58.8054 11.441 57.9561 11.2751L57.9561 11.2751C40.6458 7.89337 23.4236 17.8366 17.6972 34.5186ZM16.9183 34.2512C22.7782 17.1805 40.4003 7.00638 58.114 10.4669L16.9183 34.2512Z" stroke="url(#paint5_linear_101_244)" stroke-opacity="0.4" stroke-width="1.6469"/>
<path d="M34.3215 35.0738L38.6237 32.6731L38.0936 31.7232L35.3603 33.2484L35.3364 33.2055L35.8042 31.5019C36.3706 29.6508 36.3896 28.8927 35.9946 28.1849C35.4081 27.1339 34.124 26.8418 32.8615 27.5463C31.6175 28.2406 31.1659 29.5052 31.831 30.6972L32.9127 30.0936C32.5553 29.4531 32.7358 28.826 33.3609 28.4772C33.9584 28.1438 34.6062 28.2605 34.9362 28.8519C35.2286 29.3758 35.1185 29.9275 34.8501 30.9011L33.8633 34.2526L34.3215 35.0738ZM41.9104 30.9515C43.2372 30.2111 43.6599 28.7938 42.9639 27.5467C42.2902 26.3394 40.965 25.9377 39.8251 26.5738C39.3165 26.8576 38.9789 27.3112 38.8999 27.7169L38.8631 27.7374L38.1155 25.9727L40.815 24.4663L40.2849 23.5164L36.6447 25.5477L38.1225 28.9665L39.243 28.5622C39.3245 28.2113 39.6356 27.8328 40.0142 27.6255C40.7054 27.2439 41.4857 27.4755 41.8793 28.1881C42.2739 28.8881 42.0685 29.6577 41.3974 30.0322C40.8306 30.3485 40.1739 30.2448 39.8468 29.7523L38.7437 30.3678C39.3557 31.3926 40.6847 31.6354 41.9104 30.9515ZM47.8399 25.987C48.2499 26.7146 49.0598 27.0785 49.9208 26.598C50.7788 26.1192 50.9036 25.2338 50.4935 24.5063L50.3089 24.1753C49.9015 23.4382 49.0982 23.0788 48.228 23.5644C47.3792 24.038 47.2514 24.9251 47.6553 25.6561L47.8399 25.987ZM42.6461 24.1758C43.0561 24.9034 43.8625 25.2611 44.7266 24.7789C45.5815 24.3018 45.7131 23.4287 45.2997 22.695L45.115 22.3641C44.7077 21.627 43.9044 21.2676 43.0372 21.7515C42.1915 22.2234 42.0541 23.1078 42.4614 23.8449L42.6461 24.1758ZM45.5825 28.7898L46.3516 28.3606L47.1641 19.6776L46.395 20.1068L45.5825 28.7898ZM48.455 25.2098C48.2768 24.8833 48.2318 24.4785 48.6178 24.263C49.0223 24.0373 49.3248 24.2985 49.503 24.625L49.6876 24.956C49.872 25.2791 49.9197 25.6743 49.5275 25.8932C49.1353 26.1121 48.8223 25.8608 48.6397 25.5408L48.455 25.2098ZM43.2673 23.3952C43.0908 23.0717 43.0379 22.6673 43.427 22.4501C43.8315 22.2244 44.1309 22.4873 44.3091 22.8138L44.4938 23.1447C44.6781 23.4678 44.7289 23.8614 44.3367 24.0803C43.9445 24.2991 43.6363 24.0492 43.4519 23.7261L43.2673 23.3952Z" fill="white" fill-opacity="0.8"/>
</g>
<defs>
<linearGradient id="paint0_linear_101_244" x1="67.0848" y1="-12.7612" x2="35.2405" y2="106.083" gradientUnits="userSpaceOnUse">
<stop stop-color="#F53B3B"/>
<stop offset="1" stop-color="#FB6544"/>
</linearGradient>
<linearGradient id="paint1_linear_101_244" x1="60.5615" y1="11.1171" x2="40.5881" y2="85.6586" gradientUnits="userSpaceOnUse">
<stop stop-color="#E74544"/>
<stop offset="1" stop-color="white" stop-opacity="0.14"/>
</linearGradient>
<linearGradient id="paint2_linear_101_244" x1="45.9338" y1="29.5615" x2="34.8974" y2="106.318" gradientUnits="userSpaceOnUse">
<stop stop-color="#1256BC"/>
<stop offset="1" stop-color="#44F0FB"/>
</linearGradient>
<linearGradient id="paint3_linear_101_244" x1="60.2183" y1="11.3517" x2="40.245" y2="85.8932" gradientUnits="userSpaceOnUse">
<stop stop-color="#E74544"/>
<stop offset="1" stop-color="white" stop-opacity="0.14"/>
</linearGradient>
<linearGradient id="paint4_linear_101_244" x1="67.0848" y1="-12.7612" x2="35.2405" y2="106.083" gradientUnits="userSpaceOnUse">
<stop stop-color="#F5AB3B"/>
<stop offset="1" stop-color="#FB6544"/>
</linearGradient>
<linearGradient id="paint5_linear_101_244" x1="60.5614" y1="11.117" x2="40.5881" y2="85.6585" gradientUnits="userSpaceOnUse">
<stop stop-color="#E74544"/>
<stop offset="1" stop-color="white" stop-opacity="0.14"/>
</linearGradient>
<clipPath id="clip0_101_244">
<rect width="81.9951" height="77.1719" fill="white" transform="matrix(-0.965926 -0.258819 -0.258819 0.965926 100.162 21.7275)"/>
</clipPath>
</defs>
</svg>
