<svg width="59" height="59" viewBox="0 0 59 59" fill="none" xmlns="http://www.w3.org/2000/svg">
<rect x="1.5" y="1.5" width="55" height="55" rx="7.5" stroke="url(#paint0_linear_9129_4)"/>
<path d="M41.3409 29.7004C43.7414 27.663 44.9417 26.6442 44.6238 25.6839C44.3059 24.7235 42.7349 24.6221 39.5928 24.4194L35.8135 24.1755C34.8941 24.1162 34.4344 24.0865 34.083 23.8315C33.7317 23.5764 33.5611 23.1485 33.2199 22.2927L31.7727 18.6621C30.5927 15.7022 30.0028 14.2222 28.9859 14.2222C27.9691 14.2222 27.3791 15.7021 26.1992 18.662L24.7518 22.2929C24.4106 23.1486 24.2401 23.5765 23.8888 23.8315C23.5375 24.0866 23.0779 24.1163 22.1586 24.1758L18.3909 24.4194C15.2548 24.6222 13.6868 24.7236 13.3685 25.683C13.0503 26.6424 14.2469 27.6608 16.6401 29.6977L19.5877 32.2065C20.2806 32.7962 20.6271 33.0911 20.7572 33.5003C20.8874 33.9095 20.7751 34.3503 20.5503 35.232L19.5854 39.0174C18.7966 42.1119 18.4022 43.6592 19.2258 44.2572C20.0494 44.8552 21.3986 44.0013 24.0969 42.2933L27.3815 40.2144C28.1612 39.7208 28.5511 39.474 28.9859 39.474C29.4208 39.474 29.8106 39.7208 30.5904 40.2144L33.8749 42.2933C36.5732 44.0012 37.9224 44.8552 38.746 44.2572C39.5696 43.6592 39.1752 42.1119 38.3864 39.0174L37.4222 35.2348C37.1971 34.3518 37.0846 33.9103 37.2152 33.5007C37.3459 33.0911 37.6932 32.7962 38.388 32.2066L41.3409 29.7004Z" fill="#3BF5BD"/>
<path d="M38.388 32.2066C37.6932 32.7962 37.3458 33.0911 37.2152 33.5007C37.0846 33.9103 37.1971 34.3518 37.4222 35.2348L38.3864 39.0174C39.1752 42.1119 39.5696 43.6592 38.746 44.2572C37.9224 44.8552 36.5732 44.0012 33.8748 42.2933L30.3814 40.0821C29.699 39.6502 29.3578 39.4342 29.1719 39.0964C28.9859 38.7586 28.9859 38.3548 28.9859 37.5472V23.5591C28.9859 20.4666 28.9859 18.9203 29.3583 18.4958C29.8108 17.98 30.5557 17.837 31.167 18.1486C31.6702 18.405 32.2427 19.8414 33.3879 22.714V22.714C33.5647 23.1575 33.6531 23.3792 33.7915 23.5528C33.9606 23.7649 34.1842 23.9272 34.4383 24.0224C34.6462 24.1002 34.8844 24.1156 35.3608 24.1463L39.5927 24.4194C42.7348 24.6221 44.3059 24.7235 44.6238 25.6839C44.9417 26.6442 43.7414 27.663 41.3408 29.7004L38.388 32.2066Z" fill="#0CF3AD"/>
<defs>
<linearGradient id="paint0_linear_9129_4" x1="57" y1="57" x2="-10" y2="5.5" gradientUnits="userSpaceOnUse">
<stop stop-color="#3BF5BD"/>
<stop offset="1" stop-color="#2C2E59"/>
</linearGradient>
</defs>
</svg>
