<svg width="66" height="60" viewBox="0 0 66 60" fill="none" xmlns="http://www.w3.org/2000/svg">
<g clip-path="url(#clip0_9095_13)">
<circle cx="12" cy="38" r="1" fill="#6ABC9C"/>
<circle cx="47" cy="11" r="1" fill="#6ABC9C"/>
<circle cx="4.5" cy="39.5" r="0.5" fill="#6ABC9C"/>
<circle cx="9.5" cy="44.5" r="0.5" fill="#6ABC9C"/>
<circle cx="51.5" cy="15.5" r="0.5" fill="#6ABC9C"/>
<circle cx="30.7081" cy="31.7081" r="23.5" transform="rotate(119.509 30.7081 31.7081)" stroke="url(#paint0_linear_9095_13)"/>
<circle cx="48.5" cy="22.5" r="0.5" fill="#6ABC9C"/>
<path d="M34.1425 29.2427C34.2859 29.2427 34.4242 29.2657 34.5574 29.3041L37.0419 26.2587C37.2007 26.064 37.4953 26.0281 37.6874 26.1921C37.8744 26.3483 37.9 26.6275 37.7437 26.817L35.2874 29.8292C35.4539 30.0597 35.5538 30.3441 35.5538 30.6514C35.5538 31.2226 35.2105 31.717 34.7213 31.9372H44.3597C44.7132 31.9372 45.0001 31.6504 45.0001 31.2969V23.1901C45.0001 22.8367 44.7132 22.5498 44.3597 22.5498H32.1164C31.7629 22.5498 31.4761 22.8367 31.4761 23.1901V28.5127L32.0549 29.2452H34.1425V29.2427Z" fill="url(#paint1_linear_9095_13)"/>
<path d="M26.156 25.7438C27.6046 25.7438 28.7788 24.5696 28.7788 23.121C28.7788 21.6725 27.6046 20.4982 26.156 20.4982C24.7075 20.4982 23.5332 21.6725 23.5332 23.121C23.5332 24.5696 24.7075 25.7438 26.156 25.7438Z" fill="url(#paint2_linear_9095_13)"/>
<path d="M28.8455 42.8615C28.8455 43.215 28.5586 43.5018 28.2051 43.5018H27.1293C26.7759 43.5018 26.489 43.215 26.489 42.8615V37.4928C26.489 37.3033 26.3353 37.1496 26.1458 37.1496C25.9562 37.1496 25.8026 37.3033 25.8026 37.4928V42.8358C25.8026 43.2021 25.5029 43.5018 25.1366 43.5018H24.0839C23.7304 43.5018 23.4435 43.215 23.4435 42.8615L23.4384 29.901C23.4384 29.7268 23.2975 29.5834 23.1208 29.5834C22.9466 29.5834 22.8032 29.7242 22.8032 29.901V34.8854C22.8032 35.2388 22.5163 35.5257 22.1629 35.5257H21.6403C21.2869 35.5257 21 35.2388 21 34.8854V28.0516C21 27.2397 21.6583 26.584 22.4677 26.584H28.2999C28.9248 26.584 29.5165 26.8709 29.9059 27.3601L31.4734 29.3375L31.8038 29.755C31.8038 29.755 33.2894 29.755 34.1449 29.7575C34.4984 29.7575 34.7852 30.0444 34.7852 30.3979V30.9076C34.7852 31.261 34.4984 31.5479 34.1449 31.5479H31.3735C31.0995 31.5479 30.8408 31.4224 30.6717 31.2072L29.5037 29.7063C29.4448 29.6294 29.3501 29.5833 29.2527 29.5833H29.1733C28.9991 29.5833 28.8557 29.7242 28.8557 29.9009L28.8455 42.8615Z" fill="url(#paint3_linear_9095_13)"/>
</g>
<defs>
<linearGradient id="paint0_linear_9095_13" x1="30.7081" y1="7.70811" x2="30.7081" y2="55.7081" gradientUnits="userSpaceOnUse">
<stop stop-color="#4DB88D"/>
<stop offset="1" stop-color="#2C2E59"/>
</linearGradient>
<linearGradient id="paint1_linear_9095_13" x1="38.2381" y1="22.5498" x2="38.2381" y2="31.9372" gradientUnits="userSpaceOnUse">
<stop stop-color="#4DB68D"/>
<stop offset="1" stop-color="#8CC3AE"/>
</linearGradient>
<linearGradient id="paint2_linear_9095_13" x1="26.156" y1="20.4982" x2="26.156" y2="25.7438" gradientUnits="userSpaceOnUse">
<stop stop-color="#4DB68D"/>
<stop offset="1" stop-color="#8CC3AE"/>
</linearGradient>
<linearGradient id="paint3_linear_9095_13" x1="27.8926" y1="26.584" x2="27.8926" y2="43.5018" gradientUnits="userSpaceOnUse">
<stop stop-color="#4DB68D"/>
<stop offset="1" stop-color="#8CC3AE"/>
</linearGradient>
<clipPath id="clip0_9095_13">
<rect width="66" height="60" fill="white"/>
</clipPath>
</defs>
</svg>
