<svg width="30" height="30" viewBox="0 0 30 30" fill="none" xmlns="http://www.w3.org/2000/svg">
<path d="M9.77377 26.2628C20.3875 26.2628 26.1917 17.4697 26.1917 9.84489C26.1917 9.59515 26.1866 9.34644 26.1754 9.09911C27.302 8.28454 28.2812 7.26804 29.0538 6.11102C28.0199 6.57077 26.9071 6.87984 25.7401 7.01968C26.9313 6.30503 27.846 5.17502 28.2774 3.82794C27.1625 4.48892 25.9277 4.96914 24.6133 5.22851C23.5604 4.10692 22.0611 3.40552 20.4011 3.40552C17.2147 3.40552 14.6304 5.98959 14.6304 9.17496C14.6304 9.628 14.6812 10.0683 14.7801 10.4907C9.98429 10.2494 5.73149 7.95345 2.8858 4.46192C2.39045 5.31451 2.10459 6.3052 2.10459 7.36229C2.10459 9.36399 3.12333 11.1316 4.67234 12.1653C3.72567 12.1362 2.83644 11.8763 2.05901 11.4438C2.05815 11.468 2.05815 11.4916 2.05815 11.5174C2.05815 14.312 4.04713 16.6453 6.6878 17.174C6.20277 17.3059 5.69245 17.377 5.16614 17.377C4.79497 17.377 4.43309 17.3405 4.08153 17.2729C4.81613 19.5656 6.94648 21.234 9.47208 21.2808C7.49704 22.8287 5.00911 23.7508 2.30514 23.7508C1.84006 23.7508 1.38031 23.7241 0.92865 23.6708C3.48246 25.3077 6.51494 26.263 9.77394 26.263" fill="#ACABBF"/>
</svg>
