<svg width="21" height="29" viewBox="0 0 21 29" fill="none" xmlns="http://www.w3.org/2000/svg">
<g opacity="0.8" clip-path="url(#clip0_101_203)">
<path d="M17.6157 17.4262C18.1988 17.707 18.6524 18.0741 18.9764 18.5277C19.3004 18.9813 19.5271 19.4564 19.6567 19.9532C19.7863 20.45 19.8727 20.9144 19.9159 21.3463C19.9591 21.7783 19.9591 22.1131 19.9159 22.3507C19.8727 22.5882 19.7863 22.761 19.6567 22.869C19.3543 23.1282 18.9872 23.355 18.5552 23.5494C18.1232 23.7438 17.6481 23.9166 17.1297 24.0678C16.6113 24.2189 16.0822 24.3377 15.5422 24.4241L13.9547 24.6833C12.7452 24.8345 11.4708 24.9209 10.1317 24.9425C8.77101 24.9209 7.48589 24.8345 6.27637 24.6833C5.758 24.6185 5.22884 24.5321 4.68887 24.4241C4.1489 24.3161 3.63054 24.1973 3.13377 24.0678C2.637 23.9382 2.16183 23.7654 1.70826 23.5494C1.25469 23.3334 0.876709 23.1066 0.574328 22.869C0.444736 22.761 0.363741 22.5936 0.331343 22.3669C0.298945 22.1401 0.293546 21.7999 0.315144 21.3463C0.336743 20.8928 0.423137 20.4284 0.574328 19.9532C0.725518 19.478 0.952304 19.0029 1.25469 18.5277C1.55707 18.0525 2.01064 17.6854 2.6154 17.4262L4.62407 16.519C5.25043 16.2382 5.812 15.9359 6.30877 15.6119C6.80554 15.2879 7.18351 14.9099 7.4427 14.478C7.70188 14.046 7.84227 13.5276 7.86387 12.9229V12.7285C7.49669 12.4261 7.22671 12.0697 7.05392 11.6593L6.30877 9.90985C5.91999 9.47787 5.62841 9.0783 5.43402 8.71112C5.26123 8.40874 5.17484 8.12796 5.17484 7.86877C5.17484 7.60959 5.35843 7.48 5.7256 7.48C5.59601 6.65925 5.56361 5.9249 5.62841 5.27694C5.67161 4.73697 5.8012 4.2402 6.01719 3.78663C6.23317 3.33306 6.62195 3.10627 7.18351 3.10627C7.29151 2.6959 7.47509 2.32872 7.73428 2.00474C7.97186 1.72396 8.30664 1.46478 8.73861 1.22719C9.17059 0.989607 9.74295 0.881614 10.4557 0.903213C11.1037 0.903213 11.6328 1.0436 12.0432 1.32439C12.4536 1.60517 12.81 1.92915 13.1123 2.29632C13.4147 2.6635 13.6631 3.01988 13.8575 3.36546C14.0519 3.71104 14.2679 3.95942 14.5055 4.11061C14.5918 4.15381 14.6674 4.2078 14.7322 4.2726C14.797 4.3374 14.797 4.42379 14.7322 4.53178C14.6458 4.83417 14.5594 5.27694 14.4731 5.8601C14.3867 6.44326 14.3975 6.98323 14.5055 7.48C14.8942 7.5016 15.0778 7.63119 15.0562 7.86877C15.0346 8.10636 14.9266 8.38714 14.7322 8.71112C14.5163 9.0783 14.2139 9.47787 13.8251 9.90985C13.6739 10.2986 13.5551 10.6334 13.4687 10.9142C13.3823 11.195 13.2851 11.4541 13.1771 11.6917C13.0691 11.9293 12.9611 12.1129 12.8532 12.2425C12.7452 12.3721 12.5832 12.5341 12.3672 12.7285V12.9229C12.3672 13.5492 12.5076 14.0676 12.7884 14.478C13.0691 14.8883 13.4579 15.2663 13.9547 15.6119C14.4515 15.9575 15.0022 16.2598 15.607 16.519C16.2117 16.7782 16.8813 17.0806 17.6157 17.4262Z" fill="#1D1E43"/>
</g>
<defs>
<clipPath id="clip0_101_203">
<rect width="19.7628" height="27.5383" fill="white" transform="translate(0.282715 0.644165)"/>
</clipPath>
</defs>
</svg>
